<svg width="38" height="38" viewBox="0 0 38 38" fill="none" xmlns="http://www.w3.org/2000/svg">
<path d="M25.3333 12.6667C27.8528 12.6667 30.2692 13.6676 32.0508 15.4492C33.8324 17.2308 34.8333 19.6472 34.8333 22.1667V33.2501H28.5V22.1667C28.5 21.3269 28.1663 20.5214 27.5725 19.9276C26.9786 19.3337 26.1731 19.0001 25.3333 19.0001C24.4934 19.0001 23.688 19.3337 23.0941 19.9276C22.5003 20.5214 22.1666 21.3269 22.1666 22.1667V33.2501H15.8333V22.1667C15.8333 19.6472 16.8342 17.2308 18.6158 15.4492C20.3974 13.6676 22.8137 12.6667 25.3333 12.6667Z" stroke="white" stroke-width="4" stroke-linecap="round" stroke-linejoin="round"/>
<path d="M9.49996 14.2501H3.16663V33.2501H9.49996V14.2501Z" stroke="white" stroke-width="4" stroke-linecap="round" stroke-linejoin="round"/>
<path d="M6.33329 9.50008C8.08219 9.50008 9.49996 8.08232 9.49996 6.33341C9.49996 4.58451 8.08219 3.16675 6.33329 3.16675C4.58439 3.16675 3.16663 4.58451 3.16663 6.33341C3.16663 8.08232 4.58439 9.50008 6.33329 9.50008Z" stroke="white" stroke-width="4" stroke-linecap="round" stroke-linejoin="round"/>
</svg>
