<svg width="40" height="42" viewBox="0 0 40 42" fill="none" xmlns="http://www.w3.org/2000/svg">
<path d="M35 22.3825C34.7378 25.3614 33.6731 28.2002 31.9304 30.5669C30.1877 32.9335 27.8391 34.7301 25.1595 35.7464C22.4798 36.7627 19.5799 36.9567 16.7991 36.3057C14.0183 35.6546 11.4716 34.1855 9.457 32.0701C7.44239 29.9548 6.04319 27.2807 5.42314 24.3609C4.80308 21.441 4.98782 18.3961 5.95572 15.5825C6.92363 12.7689 8.63468 10.3029 10.8886 8.47307C13.1426 6.64324 15.8463 5.52528 18.6833 5.25C17.0223 7.60947 16.223 10.5165 16.4308 13.4425C16.6386 16.3684 17.8397 19.1189 19.8156 21.1935C21.7915 23.2682 24.411 24.5294 27.1976 24.7476C29.9842 24.9658 32.7528 24.1265 35 22.3825Z" stroke="white" stroke-width="4" stroke-linecap="round" stroke-linejoin="round"/>
</svg>
